<?xml version="1.0" encoding="UTF-8"?>
<svg version="1.1" xmlns="http://www.w3.org/2000/svg" width="1024" height="1024">
<path d="M0 0 C337.92 0 675.84 0 1024 0 C1024 337.92 1024 675.84 1024 1024 C686.08 1024 348.16 1024 0 1024 C0 686.08 0 348.16 0 0 Z " fill="#FBFBFB" transform="translate(0,0)"/>
<path d="M0 0 C1.55332588 -0.00627608 3.1066503 -0.01292387 4.65997314 -0.01991272 C9.73342877 -0.04081778 14.80688423 -0.05130172 19.88037109 -0.0612793 C21.63616323 -0.06533179 23.39195521 -0.06944886 25.14774704 -0.07362938 C33.39972474 -0.09265054 41.65169366 -0.10688848 49.90368903 -0.11524135 C59.38947914 -0.12500521 68.87503538 -0.15131548 78.36074317 -0.19174224 C85.71991111 -0.22201667 93.07901241 -0.23672086 100.43824136 -0.24002236 C104.82113279 -0.24235967 109.20377352 -0.2511468 113.58659744 -0.27648354 C117.71538672 -0.29996922 121.84376378 -0.3039164 125.97260284 -0.29372215 C127.47567756 -0.29323164 128.97877404 -0.29940643 130.48178482 -0.3132782 C153.9185286 -0.51723278 175.3229676 8.25297146 192.52880859 24.17700195 C204.67567952 36.54273542 212.03719543 51.30087166 215.52880859 68.17700195 C215.81498047 69.35262695 215.81498047 69.35262695 216.10693359 70.55200195 C219.58612003 92.20027312 214.20692818 113.88355699 202.27880859 131.98950195 C188.60851843 150.63918954 169.36959087 162.98999032 146.52880859 167.17700195 C140.95544189 167.69925419 135.43489758 167.72679898 129.84155273 167.69458008 C128.22984693 167.70001685 126.61814611 167.70714814 125.00645447 167.71582031 C120.67570125 167.73387353 116.3453342 167.72706123 112.01457524 167.71430397 C107.45236985 167.70408015 102.89019455 167.71359556 98.32798767 167.71984863 C90.66968942 167.72709874 83.01154613 167.71760775 75.35327148 167.69848633 C66.53891667 167.67673048 57.72493225 167.68377026 48.91058642 167.70579195 C41.30157239 167.72403087 33.6926689 167.72646282 26.08364004 167.71603727 C21.55720968 167.70984772 17.03095253 167.70883978 12.50453377 167.72218323 C8.24510582 167.73386546 3.98614831 167.72549424 -0.2732296 167.7026062 C-1.82263158 167.697384 -3.3720742 167.69871919 -4.9214592 167.70765686 C-18.41667778 167.77823754 -31.73561444 165.94883325 -43.78369141 159.42700195 C-44.44119385 159.08338623 -45.09869629 158.73977051 -45.77612305 158.38574219 C-65.64878498 147.73248147 -80.06261112 131.14808677 -86.6171875 109.47021484 C-87.61142511 106.04938193 -88.55575849 102.61990505 -89.47119141 99.17700195 C-89.65149902 98.53593506 -89.83180664 97.89486816 -90.01757812 97.234375 C-94.84550842 75.3371906 -87.03242042 53.46581109 -75.47119141 35.23950195 C-64.85236547 20.22471044 -50.67029352 9.70154001 -33.28369141 3.80200195 C-32.17960937 3.42567627 -32.17960937 3.42567627 -31.05322266 3.04174805 C-20.90882785 -0.20762841 -10.54526354 0.01882568 0 0 Z " fill="#173979" transform="translate(342.47119140625,379.822998046875)"/>
<path d="M0 0 C1.54244353 -0.00407606 3.08488414 -0.00942368 4.62731934 -0.01593018 C8.7783921 -0.02949029 12.92923866 -0.02435148 17.08031487 -0.01479292 C21.45167614 -0.00713305 25.82301959 -0.01425971 30.19438171 -0.01895142 C37.53505891 -0.02439244 44.87564523 -0.01726279 52.21630859 -0.00292969 C60.66361745 0.01337534 69.11070877 0.00811725 77.55801231 -0.0084089 C84.84850414 -0.02209304 92.13893107 -0.02390927 99.42943162 -0.0160929 C103.76695351 -0.01145185 108.10437373 -0.01069144 112.44188881 -0.02070236 C116.52557243 -0.02947072 120.60898026 -0.02317342 124.69263458 -0.00601959 C126.17753584 -0.00210594 127.66246096 -0.00309888 129.14735222 -0.00980759 C142.6751016 -0.06521486 156.21106225 1.2016755 168.55737305 7.13818359 C169.31211914 7.48888916 170.06686523 7.83959473 170.84448242 8.20092773 C176.75361841 11.0199826 182.11477379 14.22010547 187.18237305 18.38818359 C188.42180664 19.38591797 188.42180664 19.38591797 189.6862793 20.40380859 C204.32008405 32.82578637 215.32372491 51.26917673 218.18237305 70.38818359 C219.75456049 96.19808006 215.92269964 117.92543658 199.61987305 138.57568359 C198.17286399 140.20891643 196.69535455 141.81586948 195.18237305 143.38818359 C194.51077148 144.08814453 193.83916992 144.78810547 193.1472168 145.50927734 C176.4320373 161.53710366 155.44266847 167.70961553 132.78979492 167.64697266 C131.13806505 167.64968637 129.48633638 167.65324943 127.83460999 167.65759277 C123.36977455 167.66667383 118.90503204 167.66319025 114.44019508 167.6568346 C109.75590398 167.65175237 105.07162054 167.65647222 100.3873291 167.65960693 C92.52260925 167.66324011 84.65792702 167.65846451 76.79321289 167.64892578 C67.7153705 167.63804249 58.63761796 167.64156852 49.55977774 167.65257859 C41.749746 167.66166995 33.93974123 167.66292771 26.12970591 167.65770125 C21.47211135 167.65459172 16.81455897 167.65414419 12.15696716 167.66077423 C7.77711746 167.666574 3.39738302 167.66250285 -0.9824543 167.65098572 C-2.5847867 167.64835317 -4.18712889 167.64908007 -5.78945732 167.65351105 C-21.46408032 167.69284291 -21.46408032 167.69284291 -28.81762695 165.38818359 C-29.14762695 164.72818359 -29.47762695 164.06818359 -29.81762695 163.38818359 C-29.1627832 163.01048828 -28.50793945 162.63279297 -27.83325195 162.24365234 C-7.35613537 149.89375293 6.7530852 130.46594312 13.18237305 107.38818359 C19.17378572 82.8027316 14.70335112 57.13220355 2.18237305 35.38818359 C-5.48707962 23.7342106 -14.62966954 13.68870748 -26.7980957 6.72802734 C-27.46454102 6.28587891 -28.13098633 5.84373047 -28.81762695 5.38818359 C-28.81762695 4.72818359 -28.81762695 4.06818359 -28.81762695 3.38818359 C-19.14383615 0.67082087 -9.97773715 -0.04487648 0 0 Z " fill="#5BCDBF" transform="translate(553.817626953125,379.61181640625)"/>
<path d="M0 0 C0.83466797 -0.01224609 1.66933594 -0.02449219 2.52929688 -0.03710938 C14.32890874 -0.06470005 24.5785465 3.74687279 33.25 11.9375 C43.34141357 22.77489075 45.62401551 33.86500325 45.31640625 48.21484375 C44.76095575 58.77238499 39.5765927 67.91257571 31.94140625 75.0546875 C21.15430104 84.01509931 9.79338685 87.25686282 -4.0625 86.1875 C-17.10596878 83.69013458 -27.32425719 76.95159416 -35.0625 66.1875 C-41.91305191 55.83848248 -42.49693604 45.26696135 -41.0625 33.1875 C-40.23422401 29.43264887 -39.02766416 26.47714784 -37.0625 23.1875 C-36.66160156 22.43726563 -36.26070313 21.68703125 -35.84765625 20.9140625 C-30.4352048 11.72073917 -21.9942315 5.26203313 -11.9609375 1.84375 C-7.84337402 0.42039472 -4.61883952 0.00345463 0 0 Z " fill="#58B4B1" transform="translate(486.0625,424.8125)"/>
<path d="M0 0 C1.58206422 0.00574487 3.16410406 0.01876032 4.74609375 0.03515625 C8.92265625 0.06609375 8.92265625 0.06609375 13.18359375 0.09765625 C13.18359375 9.66765625 13.18359375 19.23765625 13.18359375 29.09765625 C22.75359375 29.09765625 32.32359375 29.09765625 42.18359375 29.09765625 C42.20421875 31.71703125 42.22484375 34.33640625 42.24609375 37.03515625 C42.25519775 37.86136475 42.26430176 38.68757324 42.27368164 39.53881836 C42.2808332 41.39199384 42.23387895 43.24514933 42.18359375 45.09765625 C41.18359375 46.09765625 41.18359375 46.09765625 38.49975586 46.21118164 C37.3319458 46.20594482 36.16413574 46.20070801 34.9609375 46.1953125 C33.70087891 46.19208984 32.44082031 46.18886719 31.14257812 46.18554688 C29.80208266 46.17719028 28.46158787 46.16872532 27.12109375 46.16015625 C25.77669433 46.15514285 24.43229315 46.15057967 23.08789062 46.14648438 C19.78641434 46.13465113 16.48502572 46.11816596 13.18359375 46.09765625 C13.18883057 46.94062256 13.19406738 47.78358887 13.19946289 48.65209961 C13.21647201 51.76993561 13.22902781 54.88774802 13.23852539 58.00561523 C13.24356432 59.35686011 13.25039552 60.70809951 13.2590332 62.05932617 C13.27111794 63.99786059 13.27629203 65.93643425 13.28125 67.875 C13.28648682 69.04281006 13.29172363 70.21062012 13.29711914 71.41381836 C13.18359375 74.09765625 13.18359375 74.09765625 12.18359375 75.09765625 C9.50627995 75.19746839 6.860552 75.236455 4.18359375 75.22265625 C3.05824219 75.22845703 3.05824219 75.22845703 1.91015625 75.234375 C-3.68979572 75.22426678 -3.68979572 75.22426678 -4.81640625 74.09765625 C-4.90407737 72.02503549 -4.92336498 69.94945331 -4.9140625 67.875 C-4.91083984 66.61494141 -4.90761719 65.35488281 -4.90429688 64.05664062 C-4.89594028 62.71614516 -4.88747532 61.37565037 -4.87890625 60.03515625 C-4.87389285 58.69075683 -4.86932967 57.34635565 -4.86523438 56.00195312 C-4.85340113 52.70047684 -4.83691596 49.39908822 -4.81640625 46.09765625 C-6.08085571 46.10551147 -6.08085571 46.10551147 -7.37084961 46.11352539 C-10.48868561 46.13053451 -13.60649802 46.14309031 -16.72436523 46.15258789 C-18.07561011 46.15762682 -19.42684951 46.16445802 -20.77807617 46.1730957 C-22.71661059 46.18518044 -24.65518425 46.19035453 -26.59375 46.1953125 C-28.34546509 46.20316772 -28.34546509 46.20316772 -30.13256836 46.21118164 C-32.81640625 46.09765625 -32.81640625 46.09765625 -33.81640625 45.09765625 C-33.91615657 42.58629521 -33.95522808 40.1086221 -33.94140625 37.59765625 C-33.94527344 36.89511719 -33.94914062 36.19257813 -33.953125 35.46875 C-33.94302003 30.22427003 -33.94302003 30.22427003 -32.81640625 29.09765625 C-30.74378549 29.00998513 -28.66820331 28.99069752 -26.59375 29 C-25.33369141 29.00322266 -24.07363281 29.00644531 -22.77539062 29.00976562 C-21.43489516 29.01812222 -20.09440037 29.02658718 -18.75390625 29.03515625 C-17.40950683 29.04016965 -16.06510565 29.04473283 -14.72070312 29.04882812 C-11.41922684 29.06066137 -8.11783822 29.07714654 -4.81640625 29.09765625 C-4.82426147 27.83320679 -4.82426147 27.83320679 -4.83227539 26.54321289 C-4.84928451 23.42537689 -4.86184031 20.30756448 -4.87133789 17.18969727 C-4.87637682 15.83845239 -4.88320802 14.48721299 -4.8918457 13.13598633 C-4.90393044 11.19745191 -4.90910453 9.25887825 -4.9140625 7.3203125 C-4.91929932 6.15250244 -4.92453613 4.98469238 -4.92993164 3.78149414 C-4.75201514 -0.42460498 -4.40383554 0.11268771 0 0 Z " fill="#F9FAF9" transform="translate(353.81640625,426.90234375)"/>
<path d="M0 0 C4.42907194 0.27924096 7.66918794 2.4243955 11.3125 4.75 C19.30816562 9.71510879 27.56614239 14.15208406 35.87426758 18.56933594 C36.86837646 19.10075195 37.86248535 19.63216797 38.88671875 20.1796875 C39.77576904 20.65132324 40.66481934 21.12295898 41.58081055 21.60888672 C46.24449324 24.29065723 46.24449324 24.29065723 48 26 C48.59765625 28.4465332 48.59765625 28.4465332 48 31 C45.68359375 32.96948242 45.68359375 32.96948242 42.4375 34.85546875 C41.85871597 35.19915497 41.27993195 35.54284119 40.68360901 35.89694214 C38.79874276 37.01128615 36.90010789 38.09938568 35 39.1875 C33.70848908 39.94341452 32.41804215 40.70114985 31.12866211 41.46069336 C29.20692467 42.59228243 27.28448581 43.72240036 25.35765076 44.84529114 C19.69074235 48.15146073 14.15576286 51.64916395 8.70898438 55.30737305 C5.33655171 57.48854119 3.03707979 58.47539444 -1 58 C-2.2679188 55.46416241 -2.1338601 53.686227 -2.14526367 50.84765625 C-2.15164352 49.77314209 -2.15802338 48.69862793 -2.16459656 47.59155273 C-2.16570938 46.42696533 -2.1668222 45.26237793 -2.16796875 44.0625 C-2.17129715 42.87148682 -2.17462555 41.68047363 -2.17805481 40.45336914 C-2.1831246 37.9314818 -2.18546312 35.40958774 -2.18530273 32.88769531 C-2.18749086 29.01616455 -2.20565084 25.14491786 -2.22460938 21.2734375 C-2.22754287 18.82812598 -2.22952796 16.3828131 -2.23046875 13.9375 C-2.23765427 12.7729126 -2.24483978 11.6083252 -2.25224304 10.40844727 C-2.24916641 9.33393311 -2.24608978 8.25941895 -2.24291992 7.15234375 C-2.24434494 6.20351318 -2.24576996 5.25468262 -2.24723816 4.27709961 C-2 2 -2 2 0 0 Z " fill="#FBFCFC" transform="translate(593,434)"/>
<path d="M0 0 C3.2675167 1.74446477 4.76925932 2.61637172 5.96484375 6.203125 C6.62484375 6.203125 7.28484375 6.203125 7.96484375 6.203125 C8.30515625 5.3059375 8.30515625 5.3059375 8.65234375 4.390625 C10.40660576 1.46685499 11.83333539 0.56465037 14.96484375 -0.796875 C21.36950682 -1.51998212 24.75135915 -0.57920696 29.96484375 3.203125 C33.59948653 7.07226086 33.35305213 11.3304909 33.4609375 16.38671875 C32.24220921 23.3056408 26.40363876 28.04185174 21.58984375 32.765625 C20.94273437 33.41208984 20.295625 34.05855469 19.62890625 34.72460938 C15.89007679 38.429518 12.06194134 41.89880945 7.96484375 45.203125 C3.62791175 43.80883603 1.26750695 41.80189571 -1.84765625 38.515625 C-4.9277515 35.32536241 -8.00729157 32.29626615 -11.41015625 29.453125 C-15.50950919 25.85996746 -18.65949254 23.04016864 -19.41015625 17.37109375 C-19.60197365 12.50972146 -19.44856958 9.07588648 -17.34765625 4.640625 C-12.40022773 -0.57423209 -6.96098705 -2.72560721 0 0 Z " fill="#F9FBFB" transform="translate(690.03515625,442.796875)"/>
<path d="M0 0 C0.66 0.33 1.32 0.66 2 1 C1.59007812 1.73863281 1.18015625 2.47726562 0.7578125 3.23828125 C-6.47998447 16.8654253 -8.97206068 33.6064801 -4.8671875 48.75390625 C-2.60048705 55.90958363 0.31926877 62.43370857 4.8984375 68.43359375 C6 70 6 70 6 72 C-1.8887695 69.78128358 -7.25047662 63.19486209 -11.578125 56.6015625 C-15.5852613 49.26982411 -17.68634263 43.49896006 -17.5 35.0625 C-17.48791504 34.18295654 -17.47583008 33.30341309 -17.46337891 32.3972168 C-17.26498503 25.91695148 -16.38413579 20.62625671 -13 15 C-12.55269531 14.21496094 -12.10539062 13.42992187 -11.64453125 12.62109375 C-8.438293 7.40343526 -4.81685154 3.7571442 0 0 Z " fill="#F6F8F8" transform="translate(462,433)"/>
<path d="M0 0 C0.33 0 0.66 0 1 0 C1.06058594 0.68707031 1.12117187 1.37414062 1.18359375 2.08203125 C1.26738281 2.98308594 1.35117188 3.88414062 1.4375 4.8125 C1.51871094 5.70582031 1.59992188 6.59914063 1.68359375 7.51953125 C1.93489767 10.12743559 1.93489767 10.12743559 3 13 C2.67 13.33 2.34 13.66 2 14 C1.76924918 15.34747084 1.58846937 16.70377565 1.4375 18.0625 C1.293125 19.361875 1.14875 20.66125 1 22 C0.67 22 0.34 22 0 22 C0 14.74 0 7.48 0 0 Z " fill="#566E98" transform="translate(252,453)"/>
<path d="M0 0 C-0.350625 0.61875 -0.70125 1.2375 -1.0625 1.875 C-1.5265625 2.926875 -1.5265625 2.926875 -2 4 C-1.67 4.66 -1.34 5.32 -1 6 C-5.75 4.125 -5.75 4.125 -8 3 C-8 2.34 -8 1.68 -8 1 C-5.07175348 0.02391783 -3.04386724 -0.08226668 0 0 Z " fill="#6CC4BC" transform="translate(533,382)"/>
<path d="M0 0 C0.99 0.33 1.98 0.66 3 1 C1.68 3.31 0.36 5.62 -1 8 C-1.99 7.67 -2.98 7.34 -4 7 C-3.67 6.01 -3.34 5.02 -3 4 C-2.01 4 -1.02 4 0 4 C0 2.68 0 1.36 0 0 Z " fill="#27447A" transform="translate(545,505)"/>
<path d="M0 0 C0 3 0 3 -2 5.1875 C-2.66 5.785625 -3.32 6.38375 -4 7 C-4.99 6.67 -5.98 6.34 -7 6 C-4.69 4.02 -2.38 2.04 0 0 Z " fill="#2D4F8B" transform="translate(280,401)"/>
<path d="M0 0 C0.33 0.99 0.66 1.98 1 3 C-0.65 4.32 -2.3 5.64 -4 7 C-4 5.68 -4 4.36 -4 3 C-3.34 3 -2.68 3 -2 3 C-2 2.34 -2 1.68 -2 1 C-1.34 0.67 -0.68 0.34 0 0 Z " fill="#2E4D81" transform="translate(540,514)"/>
</svg>
